<svg width="500" height="500" viewBox="0 0 500 500" xmlns="http://www.w3.org/2000/svg">
  <defs>
    <linearGradient id="stoneGrad" x1="0%" y1="0%" x2="100%" y2="100%">
      <stop offset="0%" style="stop-color:#f1f5f9;stop-opacity:1" />
      <stop offset="100%" style="stop-color:#94a3b8;stop-opacity:1" />
    </linearGradient>
  </defs>
  <circle cx="250" cy="250" r="240" fill="white" />
  <path d="M250 110 L350 180 L380 300 L250 390 L120 300 L150 180 Z" fill="url(#stoneGrad)" stroke="#0f172a" stroke-width="5"/>
  <path d="M250 390 V280 M250 330 L180 270 V230 M250 330 L320 270 V230 M250 300 L210 240 M250 300 L290 240" stroke="#0f172a" stroke-width="8" fill="none" stroke-linecap="round"/>
  <circle cx="180" cy="220" r="8" fill="#0f172a"/><circle cx="320" cy="220" r="8" fill="#0f172a"/><circle cx="210" cy="230" r="8" fill="#0f172a"/><circle cx="290" cy="230" r="8" fill="#0f172a"/><circle cx="250" cy="265" r="8" fill="#0f172a"/>
  <text font-family="Arial" font-weight="bold" font-size="42" fill="#0f172a">
    <textPath href="#circlePath" startOffset="50%" text-anchor="middle">TECH STONE ONE</textPath>
  </text>
  <path id="circlePath" d="M 100, 250 a 150,150 0 1,1 300,0" fill="none" />
  <text x="250" y="440" font-family="Arial" font-weight="bold" font-size="20" fill="#0f172a" text-anchor="middle">INNOVATION &amp; DIVERSITÉ</text>
</svg>